<svg xmlns="http://www.w3.org/2000/svg" viewBox="0 0 128 128" fill="none">
  <defs>
    <linearGradient id="rocket" x1="18" y1="14" x2="110" y2="118" gradientUnits="userSpaceOnUse">
      <stop stop-color="#f472b6"/>
      <stop offset="1" stop-color="#4f46e5"/>
    </linearGradient>
  </defs>
  <rect x="10" y="10" width="108" height="108" rx="28" fill="url(#rocket)" opacity="0.15"/>
  <path d="M70.5 22c-11.5 6.5-26 21-31 32.5C35.2 64 35 72 35 72s8-.2 17.5-4.5c11.5-5 26-19.5 32.5-31.1 4.3-7.7 3.7-14.3 3.7-14.3s-6.6-.6-14.2 3.9Z" fill="url(#rocket)"/>
  <path d="M52 76l-18 18 5 10 10 5 18-18" stroke="url(#rocket)" stroke-width="8" stroke-linecap="round" stroke-linejoin="round"/>
  <path d="M86 42c2.5-2.5 6.4-2.5 8.9 0s2.5 6.4 0 8.9-6.4 2.5-8.9 0-2.5-6.4 0-8.9Z" fill="#111827"/>
</svg>

